<svg width="129" height="15" viewBox="0 0 129 15" fill="none" xmlns="http://www.w3.org/2000/svg">
<path d="M0.126 0.499999H2.538L3.474 10.328H3.888L4.896 0.499999H7.776L8.766 10.328H9.18L10.116 0.499999H12.492L10.89 14H7.524L6.534 4.136H6.102L5.112 14H1.746L0.126 0.499999ZM19.2493 11.192H16.2433L15.8293 14H13.1473L15.7573 0.499999H19.8433L22.4713 14H19.6633L19.2493 11.192ZM18.9433 9.14L17.9893 2.696H17.5213L16.5673 9.14H18.9433ZM24.0556 0.499999H29.6896C30.4576 0.499999 31.0396 0.685999 31.4356 1.058C31.8436 1.43 32.0476 1.952 32.0476 2.624V6.188C32.0476 6.716 31.8916 7.136 31.5796 7.448C31.2676 7.76 30.8056 7.916 30.1936 7.916H30.1036V8.348C30.3676 8.396 30.5656 8.51 30.6976 8.69C30.8416 8.87 30.9796 9.176 31.1116 9.608L32.3896 14H29.8336L28.3936 8.564H26.5396V14H24.0556V0.499999ZM29.3116 6.584C29.4916 6.584 29.5816 6.488 29.5816 6.296V2.876C29.5816 2.684 29.4916 2.588 29.3116 2.588H26.5396V6.584H29.3116ZM33.5186 12.11L38.2886 2.714H33.5906V0.499999H41.1146V2.39L36.3446 11.786H41.1506V14H33.5186V12.11ZM45.058 14.072C44.314 14.072 43.738 13.874 43.33 13.478C42.934 13.082 42.736 12.524 42.736 11.804V2.696C42.736 1.976 42.934 1.418 43.33 1.022C43.738 0.626 44.314 0.428 45.058 0.428H48.604C49.348 0.428 49.918 0.626 50.314 1.022C50.722 1.418 50.926 1.976 50.926 2.696V11.804C50.926 12.524 50.722 13.082 50.314 13.478C49.918 13.874 49.348 14.072 48.604 14.072H45.058ZM45.22 11.606C45.22 11.786 45.316 11.876 45.508 11.876H48.154C48.346 11.876 48.442 11.786 48.442 11.606V2.894C48.442 2.714 48.346 2.624 48.154 2.624H45.508C45.316 2.624 45.22 2.714 45.22 2.894V11.606ZM52.9658 0.499999H56.6558L58.7618 10.346H59.1938V0.499999H61.3898V14H57.6998L55.5938 4.154H55.1618V14H52.9658V0.499999ZM63.4755 0.499999H70.2435V2.66H65.9595V6.152H70.0995V8.312H65.9595V11.84H70.2435V14H63.4755V0.499999ZM76.1455 0.499999H79.9795L81.3295 10.346H81.7615L83.0935 0.499999H86.9095V14H84.6775V4.118H84.2455L82.8775 14H80.1955L78.8095 4.118H78.3775V14H76.1455V0.499999ZM91.2611 14.072C90.5171 14.072 89.9411 13.874 89.5331 13.478C89.1371 13.082 88.9391 12.524 88.9391 11.804V2.696C88.9391 1.976 89.1371 1.418 89.5331 1.022C89.9411 0.626 90.5171 0.428 91.2611 0.428H94.8071C95.5511 0.428 96.1211 0.626 96.5171 1.022C96.9251 1.418 97.1291 1.976 97.1291 2.696V11.804C97.1291 12.524 96.9251 13.082 96.5171 13.478C96.1211 13.874 95.5511 14.072 94.8071 14.072H91.2611ZM91.4231 11.606C91.4231 11.786 91.5191 11.876 91.7111 11.876H94.3571C94.5491 11.876 94.6451 11.786 94.6451 11.606V2.894C94.6451 2.714 94.5491 2.624 94.3571 2.624H91.7111C91.5191 2.624 91.4231 2.714 91.4231 2.894V11.606ZM99.1689 0.499999H104.911C105.691 0.499999 106.279 0.685999 106.675 1.058C107.083 1.43 107.287 1.952 107.287 2.624V5.162C107.287 5.798 107.167 6.26 106.927 6.548C106.699 6.836 106.327 6.98 105.811 6.98H105.775V7.34H105.811C106.363 7.34 106.765 7.496 107.017 7.808C107.269 8.12 107.395 8.618 107.395 9.302V11.876C107.395 12.548 107.191 13.07 106.783 13.442C106.387 13.814 105.805 14 105.037 14H99.1689V0.499999ZM104.623 11.966C104.815 11.966 104.911 11.87 104.911 11.678V8.42C104.911 8.24 104.815 8.15 104.623 8.15H101.653V11.966H104.623ZM104.515 6.17C104.707 6.17 104.803 6.074 104.803 5.882V2.822C104.803 2.63 104.707 2.534 104.515 2.534H101.653V6.17H104.515ZM111.776 0.499999V14H109.292V0.499999H111.776ZM113.86 0.499999H116.344V11.75H120.214V14H113.86V0.499999ZM121.874 0.499999H128.642V2.66H124.358V6.152H128.498V8.312H124.358V11.84H128.642V14H121.874V0.499999Z" fill="white"/>
</svg>
